<svg width="142" height="24" viewBox="0 0 142 24" fill="none" xmlns="http://www.w3.org/2000/svg">
<path fill-rule="evenodd" clip-rule="evenodd" d="M63.1033 2.08081C61.0835 2.04865 59.0755 2.05051 57.0826 2.08504L57.0479 0.0853394C59.0629 0.0504244 61.093 0.0485471 63.1351 0.0810584L63.1033 2.08081ZM75.138 2.67581C73.1274 2.50823 71.122 2.37577 69.1247 2.27717L69.2233 0.279604C71.2428 0.3793 73.2708 0.513247 75.3041 0.682719L75.138 2.67581ZM51.0575 2.29013C49.0325 2.39305 47.0271 2.52943 45.0451 2.6978L44.8758 0.704977C46.8804 0.534693 48.9084 0.396774 50.956 0.292703L51.0575 2.29013ZM87.0978 4.09079C85.1089 3.78417 83.1191 3.51401 81.1314 3.27912L81.3661 1.29294C83.3769 1.53055 85.39 1.80388 87.4025 2.11414L87.0978 4.09079ZM39.0597 3.31086C37.0383 3.55379 35.0464 3.8301 33.0884 4.13807L32.7777 2.16236C34.7599 1.85057 36.7758 1.57094 38.8211 1.32515L39.0597 3.31086ZM98.9222 6.3602C96.9643 5.90766 94.9998 5.4933 93.0314 5.11596L93.408 3.15173C95.4005 3.53371 97.3897 3.95325 99.3726 4.41158L98.9222 6.3602ZM27.1622 5.18624C25.158 5.58113 23.1971 6.00981 21.2843 6.47018L20.8163 4.52571C22.7567 4.05868 24.7448 3.62409 26.7755 3.22397L27.1622 5.18624ZM110.53 9.53092C108.618 8.92408 106.693 8.35736 104.759 7.82964L105.285 5.90018C107.245 6.43492 109.196 7.00933 111.135 7.6246L110.53 9.53092ZM15.4727 8.00867C13.4974 8.58153 11.5863 9.18954 9.74562 9.82991L9.08844 7.94097C10.9637 7.28855 12.9083 6.66998 14.9156 6.08782L15.4727 8.00867ZM121.824 13.6582C119.974 12.8873 118.106 12.1588 116.223 11.4714L116.909 9.59267C118.819 10.2901 120.715 11.0294 122.594 11.812L121.824 13.6582ZM4.15326 11.9655C3.21753 12.3575 2.30586 12.7585 1.41932 13.168L0.580688 11.3523C1.48982 10.9324 2.42347 10.5218 3.38048 10.1208L4.15326 11.9655ZM132.686 18.7971C130.919 17.8533 129.128 16.954 127.318 16.098L128.172 14.2899C130.012 15.1595 131.831 16.0735 133.628 17.033L132.686 18.7971ZM140.462 23.3429C139.618 22.804 138.767 22.2765 137.909 21.7604L138.941 20.0469C139.813 20.572 140.679 21.1087 141.538 21.6572L140.462 23.3429Z" fill="#EAE1D9"/>
</svg>
