<svg width="142" height="24" viewBox="0 0 142 24" fill="none" xmlns="http://www.w3.org/2000/svg">
<path fill-rule="evenodd" clip-rule="evenodd" d="M141.514 2.3575C140.64 2.88245 139.763 3.3964 138.884 3.8995L137.89 2.16381C138.757 1.66748 139.622 1.16043 140.486 0.642517L141.514 2.3575ZM133.547 6.81128C131.736 7.75133 129.919 8.64722 128.096 9.50019L127.248 7.68868C129.047 6.84731 130.839 5.96357 132.625 5.03627L133.547 6.81128ZM122.532 11.9645C120.65 12.7521 118.763 13.4958 116.872 14.1968L116.177 12.3215C118.042 11.63 119.904 10.8964 121.76 10.1195L122.532 11.9645ZM3.54842 14.2928C2.58231 13.9772 1.62427 13.6558 0.674561 13.3289L1.32543 11.4378C2.26524 11.7613 3.21335 12.0793 4.16947 12.3917L3.54842 14.2928ZM15.2043 17.7017C13.2259 17.1893 11.2735 16.6506 9.34907 16.0878L9.91044 14.1682C11.8152 14.7252 13.7476 15.2585 15.7058 15.7656L15.2043 17.7017ZM111.128 16.1936C109.191 16.8229 107.251 17.4091 105.31 17.9538L104.77 16.0281C106.685 15.4907 108.599 14.9123 110.51 14.2914L111.128 16.1936ZM27.0486 20.3786C25.0464 19.9915 23.0648 19.5754 21.1056 19.1326L21.5465 17.1818C23.4856 17.6201 25.4468 18.0319 27.4283 18.415L27.0486 20.3786ZM99.4222 19.4787C97.4405 19.9499 95.4588 20.3793 93.4783 20.7683L93.0928 18.8058C95.0478 18.4218 97.0038 17.998 98.9595 17.533L99.4222 19.4787ZM39.0396 22.3042C37.0201 22.046 35.0167 21.7564 33.031 21.4374L33.3483 19.4627C35.3131 19.7784 37.2953 20.0649 39.2932 20.3204L39.0396 22.3042ZM87.4917 21.8238C85.4817 22.1382 83.4744 22.4125 81.4711 22.6483L81.2373 20.662C83.2158 20.4291 85.198 20.1582 87.1826 19.8478L87.4917 21.8238ZM51.1336 23.4486C49.1028 23.3244 47.0841 23.1664 45.0792 22.9765L45.2678 20.9854C47.2509 21.1732 49.2474 21.3295 51.2558 21.4524L51.1336 23.4486ZM75.4194 23.246C73.3914 23.4083 71.3689 23.5324 69.3535 23.6201L69.2667 21.6219C71.2582 21.5354 73.2564 21.4127 75.2598 21.2523L75.4194 23.246ZM63.2817 23.7753C61.2461 23.7913 59.2192 23.7711 57.2026 23.7166L57.2567 21.7173C59.2504 21.7712 61.254 21.7911 63.266 21.7754L63.2817 23.7753Z" fill="#EAE1D9"/>
</svg>
